<svg xmlns="http://www.w3.org/2000/svg" xmlns:xlink="http://www.w3.org/1999/xlink" width="1440" height="828" viewBox="0 0 1440 828">
    <defs>
        <rect id="d3ck65tyna" width="1440" height="828" x="0" y="0" rx="1"/>
    </defs>
    <g fill="none" fill-rule="evenodd">
        <g>
            <mask id="tujhszg1nb" fill="#fff">
                <use xlink:href="#d3ck65tyna"/>
            </mask>
            <use fill="#6246E4" xlink:href="#d3ck65tyna"/>
            <g fill="#937BFF" mask="url(#tujhszg1nb)">
                <g>
                    <path d="M175.5 112c.828 0 1.5-.672 1.5-1.5s-.672-1.5-1.5-1.5-1.5.672-1.5 1.5.672 1.5 1.5 1.5M197.5 112c.827 0 1.5-.672 1.5-1.5s-.673-1.5-1.5-1.5c-.829 0-1.5.672-1.5 1.5s.671 1.5 1.5 1.5M218.5 112c.829 0 1.5-.672 1.5-1.5s-.671-1.5-1.5-1.5c-.827 0-1.5.672-1.5 1.5s.673 1.5 1.5 1.5M241.5 112c.829 0 1.5-.672 1.5-1.5s-.671-1.5-1.5-1.5-1.5.672-1.5 1.5.671 1.5 1.5 1.5M262.5 112c.829 0 1.5-.672 1.5-1.5s-.671-1.5-1.5-1.5-1.5.672-1.5 1.5.671 1.5 1.5 1.5M164.5 133c.829 0 1.5-.67 1.5-1.5 0-.828-.671-1.5-1.5-1.5-.827 0-1.5.672-1.5 1.5 0 .83.673 1.5 1.5 1.5M185.5 133c.829 0 1.5-.67 1.5-1.5 0-.828-.671-1.5-1.5-1.5s-1.5.672-1.5 1.5c0 .83.671 1.5 1.5 1.5M207.5 133c.829 0 1.5-.67 1.5-1.5 0-.828-.671-1.5-1.5-1.5s-1.5.672-1.5 1.5c0 .83.671 1.5 1.5 1.5M229.5 133c.828 0 1.5-.67 1.5-1.5 0-.828-.672-1.5-1.5-1.5s-1.5.672-1.5 1.5c0 .83.672 1.5 1.5 1.5M250.5 133c.827 0 1.5-.67 1.5-1.5 0-.828-.673-1.5-1.5-1.5-.829 0-1.5.672-1.5 1.5 0 .83.671 1.5 1.5 1.5M175.5 156c.828 0 1.5-.67 1.5-1.5 0-.828-.672-1.5-1.5-1.5s-1.5.672-1.5 1.5c0 .83.672 1.5 1.5 1.5M197.5 156c.827 0 1.5-.67 1.5-1.5 0-.828-.673-1.5-1.5-1.5-.829 0-1.5.672-1.5 1.5 0 .83.671 1.5 1.5 1.5M218.5 156c.829 0 1.5-.67 1.5-1.5 0-.828-.671-1.5-1.5-1.5-.827 0-1.5.672-1.5 1.5 0 .83.673 1.5 1.5 1.5M241.5 156c.829 0 1.5-.67 1.5-1.5 0-.828-.671-1.5-1.5-1.5s-1.5.672-1.5 1.5c0 .83.671 1.5 1.5 1.5M262.5 156c.829 0 1.5-.67 1.5-1.5 0-.828-.671-1.5-1.5-1.5s-1.5.672-1.5 1.5c0 .83.671 1.5 1.5 1.5M164.5 177c.829 0 1.5-.673 1.5-1.5 0-.829-.671-1.5-1.5-1.5-.827 0-1.5.671-1.5 1.5 0 .827.673 1.5 1.5 1.5M185.5 177c.829 0 1.5-.673 1.5-1.5 0-.829-.671-1.5-1.5-1.5s-1.5.671-1.5 1.5c0 .827.671 1.5 1.5 1.5M207.5 177c.829 0 1.5-.673 1.5-1.5 0-.829-.671-1.5-1.5-1.5s-1.5.671-1.5 1.5c0 .827.671 1.5 1.5 1.5M229.5 177c.828 0 1.5-.673 1.5-1.5 0-.829-.672-1.5-1.5-1.5s-1.5.671-1.5 1.5c0 .827.672 1.5 1.5 1.5M250.5 177c.827 0 1.5-.673 1.5-1.5 0-.829-.673-1.5-1.5-1.5-.829 0-1.5.671-1.5 1.5 0 .827.671 1.5 1.5 1.5M175.5 198c.828 0 1.5-.673 1.5-1.5 0-.829-.672-1.5-1.5-1.5s-1.5.671-1.5 1.5c0 .827.672 1.5 1.5 1.5M197.5 198c.827 0 1.5-.673 1.5-1.5 0-.829-.673-1.5-1.5-1.5-.829 0-1.5.671-1.5 1.5 0 .827.671 1.5 1.5 1.5M218.5 198c.829 0 1.5-.673 1.5-1.5 0-.829-.671-1.5-1.5-1.5-.827 0-1.5.671-1.5 1.5 0 .827.673 1.5 1.5 1.5M241.5 198c.829 0 1.5-.673 1.5-1.5 0-.829-.671-1.5-1.5-1.5s-1.5.671-1.5 1.5c0 .827.671 1.5 1.5 1.5M262.5 198c.829 0 1.5-.673 1.5-1.5 0-.829-.671-1.5-1.5-1.5s-1.5.671-1.5 1.5c0 .827.671 1.5 1.5 1.5M164.5 221c.829 0 1.5-.673 1.5-1.5 0-.829-.671-1.5-1.5-1.5-.827 0-1.5.671-1.5 1.5 0 .827.673 1.5 1.5 1.5M185.5 221c.829 0 1.5-.673 1.5-1.5 0-.829-.671-1.5-1.5-1.5s-1.5.671-1.5 1.5c0 .827.671 1.5 1.5 1.5M207.5 221c.829 0 1.5-.673 1.5-1.5 0-.829-.671-1.5-1.5-1.5s-1.5.671-1.5 1.5c0 .827.671 1.5 1.5 1.5M229.5 221c.828 0 1.5-.673 1.5-1.5 0-.829-.672-1.5-1.5-1.5s-1.5.671-1.5 1.5c0 .827.672 1.5 1.5 1.5M250.5 221c.827 0 1.5-.673 1.5-1.5 0-.829-.673-1.5-1.5-1.5-.829 0-1.5.671-1.5 1.5 0 .827.671 1.5 1.5 1.5M175.5 242c.828 0 1.5-.67 1.5-1.5 0-.828-.672-1.5-1.5-1.5s-1.5.672-1.5 1.5c0 .83.672 1.5 1.5 1.5M197.5 242c.827 0 1.5-.67 1.5-1.5 0-.828-.673-1.5-1.5-1.5-.829 0-1.5.672-1.5 1.5 0 .83.671 1.5 1.5 1.5M218.5 242c.829 0 1.5-.67 1.5-1.5 0-.828-.671-1.5-1.5-1.5-.827 0-1.5.672-1.5 1.5 0 .83.673 1.5 1.5 1.5M241.5 242c.829 0 1.5-.67 1.5-1.5 0-.828-.671-1.5-1.5-1.5s-1.5.672-1.5 1.5c0 .83.671 1.5 1.5 1.5M262.5 242c.829 0 1.5-.67 1.5-1.5 0-.828-.671-1.5-1.5-1.5s-1.5.672-1.5 1.5c0 .83.671 1.5 1.5 1.5M164.5 264c.829 0 1.5-.67 1.5-1.5 0-.828-.671-1.5-1.5-1.5-.827 0-1.5.672-1.5 1.5 0 .83.673 1.5 1.5 1.5M185.5 264c.829 0 1.5-.67 1.5-1.5 0-.828-.671-1.5-1.5-1.5s-1.5.672-1.5 1.5c0 .83.671 1.5 1.5 1.5M207.5 264c.829 0 1.5-.67 1.5-1.5 0-.828-.671-1.5-1.5-1.5s-1.5.672-1.5 1.5c0 .83.671 1.5 1.5 1.5M229.5 264c.828 0 1.5-.67 1.5-1.5 0-.828-.672-1.5-1.5-1.5s-1.5.672-1.5 1.5c0 .83.672 1.5 1.5 1.5M250.5 264c.827 0 1.5-.67 1.5-1.5 0-.828-.673-1.5-1.5-1.5-.829 0-1.5.672-1.5 1.5 0 .83.671 1.5 1.5 1.5M175.5 286c.828 0 1.5-.673 1.5-1.5 0-.829-.672-1.5-1.5-1.5s-1.5.671-1.5 1.5c0 .827.672 1.5 1.5 1.5M197.5 286c.827 0 1.5-.673 1.5-1.5 0-.829-.673-1.5-1.5-1.5-.829 0-1.5.671-1.5 1.5 0 .827.671 1.5 1.5 1.5M218.5 286c.829 0 1.5-.673 1.5-1.5 0-.829-.671-1.5-1.5-1.5-.827 0-1.5.671-1.5 1.5 0 .827.673 1.5 1.5 1.5M241.5 286c.829 0 1.5-.673 1.5-1.5 0-.829-.671-1.5-1.5-1.5s-1.5.671-1.5 1.5c0 .827.671 1.5 1.5 1.5M262.5 286c.829 0 1.5-.673 1.5-1.5 0-.829-.671-1.5-1.5-1.5s-1.5.671-1.5 1.5c0 .827.671 1.5 1.5 1.5M164.5 308c.829 0 1.5-.673 1.5-1.5 0-.829-.671-1.5-1.5-1.5-.827 0-1.5.671-1.5 1.5 0 .827.673 1.5 1.5 1.5M185.5 308c.829 0 1.5-.673 1.5-1.5 0-.829-.671-1.5-1.5-1.5s-1.5.671-1.5 1.5c0 .827.671 1.5 1.5 1.5M207.5 308c.829 0 1.5-.673 1.5-1.5 0-.829-.671-1.5-1.5-1.5s-1.5.671-1.5 1.5c0 .827.671 1.5 1.5 1.5M229.5 308c.828 0 1.5-.673 1.5-1.5 0-.829-.672-1.5-1.5-1.5s-1.5.671-1.5 1.5c0 .827.672 1.5 1.5 1.5M250.5 308c.827 0 1.5-.673 1.5-1.5 0-.829-.673-1.5-1.5-1.5-.829 0-1.5.671-1.5 1.5 0 .827.671 1.5 1.5 1.5M175.5 329c.828 0 1.5-.673 1.5-1.5 0-.829-.672-1.5-1.5-1.5s-1.5.671-1.5 1.5c0 .827.672 1.5 1.5 1.5M197.5 329c.827 0 1.5-.673 1.5-1.5 0-.829-.673-1.5-1.5-1.5-.829 0-1.5.671-1.5 1.5 0 .827.671 1.5 1.5 1.5M218.5 329c.829 0 1.5-.673 1.5-1.5 0-.829-.671-1.5-1.5-1.5-.827 0-1.5.671-1.5 1.5 0 .827.673 1.5 1.5 1.5M241.5 329c.829 0 1.5-.673 1.5-1.5 0-.829-.671-1.5-1.5-1.5s-1.5.671-1.5 1.5c0 .827.671 1.5 1.5 1.5M262.5 329c.829 0 1.5-.673 1.5-1.5 0-.829-.671-1.5-1.5-1.5s-1.5.671-1.5 1.5c0 .827.671 1.5 1.5 1.5M164.5 352c.829 0 1.5-.67 1.5-1.5 0-.828-.671-1.5-1.5-1.5-.827 0-1.5.672-1.5 1.5 0 .83.673 1.5 1.5 1.5M185.5 352c.829 0 1.5-.67 1.5-1.5 0-.828-.671-1.5-1.5-1.5s-1.5.672-1.5 1.5c0 .83.671 1.5 1.5 1.5M207.5 352c.829 0 1.5-.67 1.5-1.5 0-.828-.671-1.5-1.5-1.5s-1.5.672-1.5 1.5c0 .83.671 1.5 1.5 1.5M229.5 352c.828 0 1.5-.67 1.5-1.5 0-.828-.672-1.5-1.5-1.5s-1.5.672-1.5 1.5c0 .83.672 1.5 1.5 1.5M250.5 352c.827 0 1.5-.67 1.5-1.5 0-.828-.673-1.5-1.5-1.5-.829 0-1.5.672-1.5 1.5 0 .83.671 1.5 1.5 1.5M175.5 373c.828 0 1.5-.67 1.5-1.5 0-.828-.672-1.5-1.5-1.5s-1.5.672-1.5 1.5c0 .83.672 1.5 1.5 1.5M197.5 373c.827 0 1.5-.67 1.5-1.5 0-.828-.673-1.5-1.5-1.5-.829 0-1.5.672-1.5 1.5 0 .83.671 1.5 1.5 1.5M218.5 373c.829 0 1.5-.67 1.5-1.5 0-.828-.671-1.5-1.5-1.5-.827 0-1.5.672-1.5 1.5 0 .83.673 1.5 1.5 1.5M241.5 373c.829 0 1.5-.67 1.5-1.5 0-.828-.671-1.5-1.5-1.5s-1.5.672-1.5 1.5c0 .83.671 1.5 1.5 1.5M262.5 373c.829 0 1.5-.67 1.5-1.5 0-.828-.671-1.5-1.5-1.5s-1.5.672-1.5 1.5c0 .83.671 1.5 1.5 1.5M164.5 390c.829 0 1.5-.673 1.5-1.5 0-.829-.671-1.5-1.5-1.5-.827 0-1.5.671-1.5 1.5 0 .827.673 1.5 1.5 1.5M185.5 390c.829 0 1.5-.673 1.5-1.5 0-.829-.671-1.5-1.5-1.5s-1.5.671-1.5 1.5c0 .827.671 1.5 1.5 1.5M207.5 390c.829 0 1.5-.673 1.5-1.5 0-.829-.671-1.5-1.5-1.5s-1.5.671-1.5 1.5c0 .827.671 1.5 1.5 1.5M229.5 390c.828 0 1.5-.673 1.5-1.5 0-.829-.672-1.5-1.5-1.5s-1.5.671-1.5 1.5c0 .827.672 1.5 1.5 1.5M250.5 390c.827 0 1.5-.673 1.5-1.5 0-.829-.673-1.5-1.5-1.5-.829 0-1.5.671-1.5 1.5 0 .827.671 1.5 1.5 1.5M175.5 412c.828 0 1.5-.67 1.5-1.5 0-.828-.672-1.5-1.5-1.5s-1.5.672-1.5 1.5c0 .83.672 1.5 1.5 1.5M197.5 412c.827 0 1.5-.67 1.5-1.5 0-.828-.673-1.5-1.5-1.5-.829 0-1.5.672-1.5 1.5 0 .83.671 1.5 1.5 1.5M218.5 412c.829 0 1.5-.67 1.5-1.5 0-.828-.671-1.5-1.5-1.5-.827 0-1.5.672-1.5 1.5 0 .83.673 1.5 1.5 1.5M241.5 412c.829 0 1.5-.67 1.5-1.5 0-.828-.671-1.5-1.5-1.5s-1.5.672-1.5 1.5c0 .83.671 1.5 1.5 1.5M262.5 412c.829 0 1.5-.67 1.5-1.5 0-.828-.671-1.5-1.5-1.5s-1.5.672-1.5 1.5c0 .83.671 1.5 1.5 1.5M164.5 434c.829 0 1.5-.672 1.5-1.5s-.671-1.5-1.5-1.5c-.827 0-1.5.672-1.5 1.5s.673 1.5 1.5 1.5M185.5 434c.829 0 1.5-.672 1.5-1.5s-.671-1.5-1.5-1.5-1.5.672-1.5 1.5.671 1.5 1.5 1.5M207.5 434c.829 0 1.5-.672 1.5-1.5s-.671-1.5-1.5-1.5-1.5.672-1.5 1.5.671 1.5 1.5 1.5M229.5 434c.828 0 1.5-.672 1.5-1.5s-.672-1.5-1.5-1.5-1.5.672-1.5 1.5.672 1.5 1.5 1.5M250.5 434c.827 0 1.5-.672 1.5-1.5s-.673-1.5-1.5-1.5c-.829 0-1.5.672-1.5 1.5s.671 1.5 1.5 1.5M175.5 456c.828 0 1.5-.673 1.5-1.5 0-.829-.672-1.5-1.5-1.5s-1.5.671-1.5 1.5c0 .827.672 1.5 1.5 1.5M197.5 456c.827 0 1.5-.673 1.5-1.5 0-.829-.673-1.5-1.5-1.5-.829 0-1.5.671-1.5 1.5 0 .827.671 1.5 1.5 1.5M218.5 456c.829 0 1.5-.673 1.5-1.5 0-.829-.671-1.5-1.5-1.5-.827 0-1.5.671-1.5 1.5 0 .827.673 1.5 1.5 1.5M241.5 456c.829 0 1.5-.673 1.5-1.5 0-.829-.671-1.5-1.5-1.5s-1.5.671-1.5 1.5c0 .827.671 1.5 1.5 1.5M262.5 456c.829 0 1.5-.673 1.5-1.5 0-.829-.671-1.5-1.5-1.5s-1.5.671-1.5 1.5c0 .827.671 1.5 1.5 1.5M164.5 477c.829 0 1.5-.673 1.5-1.5 0-.829-.671-1.5-1.5-1.5-.827 0-1.5.671-1.5 1.5 0 .827.673 1.5 1.5 1.5M185.5 477c.829 0 1.5-.673 1.5-1.5 0-.829-.671-1.5-1.5-1.5s-1.5.671-1.5 1.5c0 .827.671 1.5 1.5 1.5M207.5 477c.829 0 1.5-.673 1.5-1.5 0-.829-.671-1.5-1.5-1.5s-1.5.671-1.5 1.5c0 .827.671 1.5 1.5 1.5M229.5 477c.828 0 1.5-.673 1.5-1.5 0-.829-.672-1.5-1.5-1.5s-1.5.671-1.5 1.5c0 .827.672 1.5 1.5 1.5M250.5 477c.827 0 1.5-.673 1.5-1.5 0-.829-.673-1.5-1.5-1.5-.829 0-1.5.671-1.5 1.5 0 .827.671 1.5 1.5 1.5M175.5 499c.828 0 1.5-.672 1.5-1.5s-.672-1.5-1.5-1.5-1.5.672-1.5 1.5.672 1.5 1.5 1.5M197.5 499c.827 0 1.5-.672 1.5-1.5s-.673-1.5-1.5-1.5c-.829 0-1.5.672-1.5 1.5s.671 1.5 1.5 1.5M218.5 499c.829 0 1.5-.672 1.5-1.5s-.671-1.5-1.5-1.5c-.827 0-1.5.672-1.5 1.5s.673 1.5 1.5 1.5M241.5 499c.829 0 1.5-.672 1.5-1.5s-.671-1.5-1.5-1.5-1.5.672-1.5 1.5.671 1.5 1.5 1.5M262.5 499c.829 0 1.5-.672 1.5-1.5s-.671-1.5-1.5-1.5-1.5.672-1.5 1.5.671 1.5 1.5 1.5M164.5 521c.829 0 1.5-.67 1.5-1.5 0-.828-.671-1.5-1.5-1.5-.827 0-1.5.672-1.5 1.5 0 .83.673 1.5 1.5 1.5M185.5 521c.829 0 1.5-.67 1.5-1.5 0-.828-.671-1.5-1.5-1.5s-1.5.672-1.5 1.5c0 .83.671 1.5 1.5 1.5M207.5 521c.829 0 1.5-.67 1.5-1.5 0-.828-.671-1.5-1.5-1.5s-1.5.672-1.5 1.5c0 .83.671 1.5 1.5 1.5M229.5 521c.828 0 1.5-.67 1.5-1.5 0-.828-.672-1.5-1.5-1.5s-1.5.672-1.5 1.5c0 .83.672 1.5 1.5 1.5M250.5 521c.827 0 1.5-.67 1.5-1.5 0-.828-.673-1.5-1.5-1.5-.829 0-1.5.672-1.5 1.5 0 .83.671 1.5 1.5 1.5M175.5 542c.828 0 1.5-.67 1.5-1.5 0-.828-.672-1.5-1.5-1.5s-1.5.672-1.5 1.5c0 .83.672 1.5 1.5 1.5M197.5 542c.827 0 1.5-.67 1.5-1.5 0-.828-.673-1.5-1.5-1.5-.829 0-1.5.672-1.5 1.5 0 .83.671 1.5 1.5 1.5M218.5 542c.829 0 1.5-.67 1.5-1.5 0-.828-.671-1.5-1.5-1.5-.827 0-1.5.672-1.5 1.5 0 .83.673 1.5 1.5 1.5M241.5 542c.829 0 1.5-.67 1.5-1.5 0-.828-.671-1.5-1.5-1.5s-1.5.672-1.5 1.5c0 .83.671 1.5 1.5 1.5M262.5 542c.829 0 1.5-.67 1.5-1.5 0-.828-.671-1.5-1.5-1.5s-1.5.672-1.5 1.5c0 .83.671 1.5 1.5 1.5M164.5 565c.829 0 1.5-.673 1.5-1.5 0-.829-.671-1.5-1.5-1.5-.827 0-1.5.671-1.5 1.5 0 .827.673 1.5 1.5 1.5M185.5 565c.829 0 1.5-.673 1.5-1.5 0-.829-.671-1.5-1.5-1.5s-1.5.671-1.5 1.5c0 .827.671 1.5 1.5 1.5M207.5 565c.829 0 1.5-.673 1.5-1.5 0-.829-.671-1.5-1.5-1.5s-1.5.671-1.5 1.5c0 .827.671 1.5 1.5 1.5M229.5 565c.828 0 1.5-.673 1.5-1.5 0-.829-.672-1.5-1.5-1.5s-1.5.671-1.5 1.5c0 .827.672 1.5 1.5 1.5M250.5 565c.827 0 1.5-.673 1.5-1.5 0-.829-.673-1.5-1.5-1.5-.829 0-1.5.671-1.5 1.5 0 .827.671 1.5 1.5 1.5M175.5 586c.828 0 1.5-.673 1.5-1.5 0-.829-.672-1.5-1.5-1.5s-1.5.671-1.5 1.5c0 .827.672 1.5 1.5 1.5M197.5 586c.827 0 1.5-.673 1.5-1.5 0-.829-.673-1.5-1.5-1.5-.829 0-1.5.671-1.5 1.5 0 .827.671 1.5 1.5 1.5M218.5 586c.829 0 1.5-.673 1.5-1.5 0-.829-.671-1.5-1.5-1.5-.827 0-1.5.671-1.5 1.5 0 .827.673 1.5 1.5 1.5M241.5 586c.829 0 1.5-.673 1.5-1.5 0-.829-.671-1.5-1.5-1.5s-1.5.671-1.5 1.5c0 .827.671 1.5 1.5 1.5M262.5 586c.829 0 1.5-.673 1.5-1.5 0-.829-.671-1.5-1.5-1.5s-1.5.671-1.5 1.5c0 .827.671 1.5 1.5 1.5M164.5 609c.829 0 1.5-.673 1.5-1.5 0-.829-.671-1.5-1.5-1.5-.827 0-1.5.671-1.5 1.5 0 .827.673 1.5 1.5 1.5M185.5 609c.829 0 1.5-.673 1.5-1.5 0-.829-.671-1.5-1.5-1.5s-1.5.671-1.5 1.5c0 .827.671 1.5 1.5 1.5M207.5 609c.829 0 1.5-.673 1.5-1.5 0-.829-.671-1.5-1.5-1.5s-1.5.671-1.5 1.5c0 .827.671 1.5 1.5 1.5M229.5 609c.828 0 1.5-.673 1.5-1.5 0-.829-.672-1.5-1.5-1.5s-1.5.671-1.5 1.5c0 .827.672 1.5 1.5 1.5M250.5 609c.827 0 1.5-.673 1.5-1.5 0-.829-.673-1.5-1.5-1.5-.829 0-1.5.671-1.5 1.5 0 .827.671 1.5 1.5 1.5M175.5 630c.828 0 1.5-.67 1.5-1.5 0-.828-.672-1.5-1.5-1.5s-1.5.672-1.5 1.5c0 .83.672 1.5 1.5 1.5M197.5 630c.827 0 1.5-.67 1.5-1.5 0-.828-.673-1.5-1.5-1.5-.829 0-1.5.672-1.5 1.5 0 .83.671 1.5 1.5 1.5M218.5 630c.829 0 1.5-.67 1.5-1.5 0-.828-.671-1.5-1.5-1.5-.827 0-1.5.672-1.5 1.5 0 .83.673 1.5 1.5 1.5M241.5 630c.829 0 1.5-.67 1.5-1.5 0-.828-.671-1.5-1.5-1.5s-1.5.672-1.5 1.5c0 .83.671 1.5 1.5 1.5M262.5 630c.829 0 1.5-.67 1.5-1.5 0-.828-.671-1.5-1.5-1.5s-1.5.672-1.5 1.5c0 .83.671 1.5 1.5 1.5M164.5 652c.829 0 1.5-.67 1.5-1.5 0-.828-.671-1.5-1.5-1.5-.827 0-1.5.672-1.5 1.5 0 .83.673 1.5 1.5 1.5M185.5 652c.829 0 1.5-.67 1.5-1.5 0-.828-.671-1.5-1.5-1.5s-1.5.672-1.5 1.5c0 .83.671 1.5 1.5 1.5M207.5 652c.829 0 1.5-.67 1.5-1.5 0-.828-.671-1.5-1.5-1.5s-1.5.672-1.5 1.5c0 .83.671 1.5 1.5 1.5M229.5 652c.828 0 1.5-.67 1.5-1.5 0-.828-.672-1.5-1.5-1.5s-1.5.672-1.5 1.5c0 .83.672 1.5 1.5 1.5M250.5 652c.827 0 1.5-.67 1.5-1.5 0-.828-.673-1.5-1.5-1.5-.829 0-1.5.672-1.5 1.5 0 .83.671 1.5 1.5 1.5M175.5 674c.828 0 1.5-.673 1.5-1.5 0-.829-.672-1.5-1.5-1.5s-1.5.671-1.5 1.5c0 .827.672 1.5 1.5 1.5M197.5 674c.827 0 1.5-.673 1.5-1.5 0-.829-.673-1.5-1.5-1.5-.829 0-1.5.671-1.5 1.5 0 .827.671 1.5 1.5 1.5M218.5 674c.829 0 1.5-.673 1.5-1.5 0-.829-.671-1.5-1.5-1.5-.827 0-1.5.671-1.5 1.5 0 .827.673 1.5 1.5 1.5M241.5 674c.829 0 1.5-.673 1.5-1.5 0-.829-.671-1.5-1.5-1.5s-1.5.671-1.5 1.5c0 .827.671 1.5 1.5 1.5M262.5 674c.829 0 1.5-.673 1.5-1.5 0-.829-.671-1.5-1.5-1.5s-1.5.671-1.5 1.5c0 .827.671 1.5 1.5 1.5M164.5 696c.829 0 1.5-.673 1.5-1.5 0-.829-.671-1.5-1.5-1.5-.827 0-1.5.671-1.5 1.5 0 .827.673 1.5 1.5 1.5M185.5 696c.829 0 1.5-.673 1.5-1.5 0-.829-.671-1.5-1.5-1.5s-1.5.671-1.5 1.5c0 .827.671 1.5 1.5 1.5M207.5 696c.829 0 1.5-.673 1.5-1.5 0-.829-.671-1.5-1.5-1.5s-1.5.671-1.5 1.5c0 .827.671 1.5 1.5 1.5M229.5 696c.828 0 1.5-.673 1.5-1.5 0-.829-.672-1.5-1.5-1.5s-1.5.671-1.5 1.5c0 .827.672 1.5 1.5 1.5M250.5 696c.827 0 1.5-.673 1.5-1.5 0-.829-.673-1.5-1.5-1.5-.829 0-1.5.671-1.5 1.5 0 .827.671 1.5 1.5 1.5M175.5 717c.828 0 1.5-.673 1.5-1.5 0-.829-.672-1.5-1.5-1.5s-1.5.671-1.5 1.5c0 .827.672 1.5 1.5 1.5M197.5 717c.827 0 1.5-.673 1.5-1.5 0-.829-.673-1.5-1.5-1.5-.829 0-1.5.671-1.5 1.5 0 .827.671 1.5 1.5 1.5M218.5 717c.829 0 1.5-.673 1.5-1.5 0-.829-.671-1.5-1.5-1.5-.827 0-1.5.671-1.5 1.5 0 .827.673 1.5 1.5 1.5M241.5 717c.829 0 1.5-.673 1.5-1.5 0-.829-.671-1.5-1.5-1.5s-1.5.671-1.5 1.5c0 .827.671 1.5 1.5 1.5M262.5 717c.829 0 1.5-.673 1.5-1.5 0-.829-.671-1.5-1.5-1.5s-1.5.671-1.5 1.5c0 .827.671 1.5 1.5 1.5M164.5 739c.829 0 1.5-.67 1.5-1.5 0-.828-.671-1.5-1.5-1.5-.827 0-1.5.672-1.5 1.5 0 .83.673 1.5 1.5 1.5M185.5 739c.829 0 1.5-.67 1.5-1.5 0-.828-.671-1.5-1.5-1.5s-1.5.672-1.5 1.5c0 .83.671 1.5 1.5 1.5M207.5 739c.829 0 1.5-.67 1.5-1.5 0-.828-.671-1.5-1.5-1.5s-1.5.672-1.5 1.5c0 .83.671 1.5 1.5 1.5M229.5 739c.828 0 1.5-.67 1.5-1.5 0-.828-.672-1.5-1.5-1.5s-1.5.672-1.5 1.5c0 .83.672 1.5 1.5 1.5M250.5 739c.827 0 1.5-.67 1.5-1.5 0-.828-.673-1.5-1.5-1.5-.829 0-1.5.672-1.5 1.5 0 .83.671 1.5 1.5 1.5M175.5 761c.828 0 1.5-.67 1.5-1.5 0-.828-.672-1.5-1.5-1.5s-1.5.672-1.5 1.5c0 .83.672 1.5 1.5 1.5M197.5 761c.827 0 1.5-.67 1.5-1.5 0-.828-.673-1.5-1.5-1.5-.829 0-1.5.672-1.5 1.5 0 .83.671 1.5 1.5 1.5M218.5 761c.829 0 1.5-.67 1.5-1.5 0-.828-.671-1.5-1.5-1.5-.827 0-1.5.672-1.5 1.5 0 .83.673 1.5 1.5 1.5M241.5 761c.829 0 1.5-.67 1.5-1.5 0-.828-.671-1.5-1.5-1.5s-1.5.672-1.5 1.5c0 .83.671 1.5 1.5 1.5M262.5 761c.829 0 1.5-.67 1.5-1.5 0-.828-.671-1.5-1.5-1.5s-1.5.672-1.5 1.5c0 .83.671 1.5 1.5 1.5M164.5 778c.829 0 1.5-.673 1.5-1.5 0-.829-.671-1.5-1.5-1.5-.827 0-1.5.671-1.5 1.5 0 .827.673 1.5 1.5 1.5M185.5 778c.829 0 1.5-.673 1.5-1.5 0-.829-.671-1.5-1.5-1.5s-1.5.671-1.5 1.5c0 .827.671 1.5 1.5 1.5M207.5 778c.829 0 1.5-.673 1.5-1.5 0-.829-.671-1.5-1.5-1.5s-1.5.671-1.5 1.5c0 .827.671 1.5 1.5 1.5M229.5 778c.828 0 1.5-.673 1.5-1.5 0-.829-.672-1.5-1.5-1.5s-1.5.671-1.5 1.5c0 .827.672 1.5 1.5 1.5M250.5 778c.827 0 1.5-.673 1.5-1.5 0-.829-.673-1.5-1.5-1.5-.829 0-1.5.671-1.5 1.5 0 .827.671 1.5 1.5 1.5M175.5 799c.828 0 1.5-.67 1.5-1.5 0-.828-.672-1.5-1.5-1.5s-1.5.672-1.5 1.5c0 .83.672 1.5 1.5 1.5M197.5 799c.827 0 1.5-.67 1.5-1.5 0-.828-.673-1.5-1.5-1.5-.829 0-1.5.672-1.5 1.5 0 .83.671 1.5 1.5 1.5M218.5 799c.829 0 1.5-.67 1.5-1.5 0-.828-.671-1.5-1.5-1.5-.827 0-1.5.672-1.5 1.5 0 .83.673 1.5 1.5 1.5M241.5 799c.829 0 1.5-.67 1.5-1.5 0-.828-.671-1.5-1.5-1.5s-1.5.672-1.5 1.5c0 .83.671 1.5 1.5 1.5M262.5 799c.829 0 1.5-.67 1.5-1.5 0-.828-.671-1.5-1.5-1.5s-1.5.672-1.5 1.5c0 .83.671 1.5 1.5 1.5M164.5 822c.829 0 1.5-.672 1.5-1.5s-.671-1.5-1.5-1.5c-.827 0-1.5.672-1.5 1.5s.673 1.5 1.5 1.5M185.5 822c.829 0 1.5-.672 1.5-1.5s-.671-1.5-1.5-1.5-1.5.672-1.5 1.5.671 1.5 1.5 1.5M207.5 822c.829 0 1.5-.672 1.5-1.5s-.671-1.5-1.5-1.5-1.5.672-1.5 1.5.671 1.5 1.5 1.5M229.5 822c.828 0 1.5-.672 1.5-1.5s-.672-1.5-1.5-1.5-1.5.672-1.5 1.5.672 1.5 1.5 1.5M250.5 822c.827 0 1.5-.672 1.5-1.5s-.673-1.5-1.5-1.5c-.829 0-1.5.672-1.5 1.5s.671 1.5 1.5 1.5M175.5 843c.828 0 1.5-.673 1.5-1.5 0-.829-.672-1.5-1.5-1.5s-1.5.671-1.5 1.5c0 .827.672 1.5 1.5 1.5M197.5 843c.827 0 1.5-.673 1.5-1.5 0-.829-.673-1.5-1.5-1.5-.829 0-1.5.671-1.5 1.5 0 .827.671 1.5 1.5 1.5M218.5 843c.829 0 1.5-.673 1.5-1.5 0-.829-.671-1.5-1.5-1.5-.827 0-1.5.671-1.5 1.5 0 .827.673 1.5 1.5 1.5M241.5 843c.829 0 1.5-.673 1.5-1.5 0-.829-.671-1.5-1.5-1.5s-1.5.671-1.5 1.5c0 .827.671 1.5 1.5 1.5M262.5 843c.829 0 1.5-.673 1.5-1.5 0-.829-.671-1.5-1.5-1.5s-1.5.671-1.5 1.5c0 .827.671 1.5 1.5 1.5M164.5 865c.829 0 1.5-.673 1.5-1.5 0-.829-.671-1.5-1.5-1.5-.827 0-1.5.671-1.5 1.5 0 .827.673 1.5 1.5 1.5M185.5 865c.829 0 1.5-.673 1.5-1.5 0-.829-.671-1.5-1.5-1.5s-1.5.671-1.5 1.5c0 .827.671 1.5 1.5 1.5M207.5 865c.829 0 1.5-.673 1.5-1.5 0-.829-.671-1.5-1.5-1.5s-1.5.671-1.5 1.5c0 .827.671 1.5 1.5 1.5M229.5 865c.828 0 1.5-.673 1.5-1.5 0-.829-.672-1.5-1.5-1.5s-1.5.671-1.5 1.5c0 .827.672 1.5 1.5 1.5M250.5 865c.827 0 1.5-.673 1.5-1.5 0-.829-.673-1.5-1.5-1.5-.829 0-1.5.671-1.5 1.5 0 .827.671 1.5 1.5 1.5M175.5 887c.828 0 1.5-.672 1.5-1.5s-.672-1.5-1.5-1.5-1.5.672-1.5 1.5.672 1.5 1.5 1.5M197.5 887c.827 0 1.5-.672 1.5-1.5s-.673-1.5-1.5-1.5c-.829 0-1.5.672-1.5 1.5s.671 1.5 1.5 1.5M218.5 887c.829 0 1.5-.672 1.5-1.5s-.671-1.5-1.5-1.5c-.827 0-1.5.672-1.5 1.5s.673 1.5 1.5 1.5M241.5 887c.829 0 1.5-.672 1.5-1.5s-.671-1.5-1.5-1.5-1.5.672-1.5 1.5.671 1.5 1.5 1.5M262.5 887c.829 0 1.5-.672 1.5-1.5s-.671-1.5-1.5-1.5-1.5.672-1.5 1.5.671 1.5 1.5 1.5M164.5 909c.829 0 1.5-.67 1.5-1.5 0-.828-.671-1.5-1.5-1.5-.827 0-1.5.672-1.5 1.5 0 .83.673 1.5 1.5 1.5M185.5 909c.829 0 1.5-.67 1.5-1.5 0-.828-.671-1.5-1.5-1.5s-1.5.672-1.5 1.5c0 .83.671 1.5 1.5 1.5M207.5 909c.829 0 1.5-.67 1.5-1.5 0-.828-.671-1.5-1.5-1.5s-1.5.672-1.5 1.5c0 .83.671 1.5 1.5 1.5M229.5 909c.828 0 1.5-.67 1.5-1.5 0-.828-.672-1.5-1.5-1.5s-1.5.672-1.5 1.5c0 .83.672 1.5 1.5 1.5M250.5 909c.827 0 1.5-.67 1.5-1.5 0-.828-.673-1.5-1.5-1.5-.829 0-1.5.672-1.5 1.5 0 .83.671 1.5 1.5 1.5M175.5 930c.828 0 1.5-.67 1.5-1.5 0-.828-.672-1.5-1.5-1.5s-1.5.672-1.5 1.5c0 .83.672 1.5 1.5 1.5M197.5 930c.827 0 1.5-.67 1.5-1.5 0-.828-.673-1.5-1.5-1.5-.829 0-1.5.672-1.5 1.5 0 .83.671 1.5 1.5 1.5M218.5 930c.829 0 1.5-.67 1.5-1.5 0-.828-.671-1.5-1.5-1.5-.827 0-1.5.672-1.5 1.5 0 .83.673 1.5 1.5 1.5M241.5 930c.829 0 1.5-.67 1.5-1.5 0-.828-.671-1.5-1.5-1.5s-1.5.672-1.5 1.5c0 .83.671 1.5 1.5 1.5M262.5 930c.829 0 1.5-.67 1.5-1.5 0-.828-.671-1.5-1.5-1.5s-1.5.672-1.5 1.5c0 .83.671 1.5 1.5 1.5" transform="translate(-156.000000, -109.037361)"/>
                </g>
            </g>
        </g>
    </g>
</svg>
